<svg xmlns="http://www.w3.org/2000/svg" width="23" height="17" viewBox="0 0 23 17">
    <path fill="#364252" fill-rule="nonzero" d="M22.5 9.105C22.5 3.801 18.693.5 13.782.5c-1.852 0-3.524.31-4.026 2.468-1.401-.525-5.453-2.04-6.75-2.04-1.144 0-2.102.705-2.102 1.964 0 2.005 5.659 3.803 7.008 4.366C6.688 7.693.5 9.734.5 11.532c0 1.398.984 2.054 2.221 2.054 1.517 0 5.449-1.537 6.961-2.094-.099.282-.185.588-.185.9 0 1.052 1.25 2.171 2.26 2.171.383 0 .92-.22 1.277-.36.43 1.659 1.486 2.297 3.08 2.297 3.103.005 6.386-3.071 6.386-7.395zM5.141 4.56c-.529-.18-2.763-.948-2.763-1.667 0-.387.382-.49.688-.49.82 0 5.354 1.734 6.359 2.117l-.258 1.528L5.141 4.56zm-2.566 7.615c-.511 0-1.963-.652 2.024-2.08l4.31-1.556c-.055.7-.129 1.245.061 1.59-5.893 2.335-6.16 1.976-6.395 2.046zm8.409.104v-.001c0-1.317 4.065-3.017 4.615-3.017.22 0 .49.22.49.477 0 .94-3.305 3.458-4.198 3.458-.331-.004-.907-.57-.907-.917zm3.364 1.513c0-.512 2.591-2.44 3.142-2.44.21 0 .356.346.356.525 0 .724-.666 1.007-2.208 2.296 1.276 1.336 3.733-.92 3.733-2.62 0-1.173-1.04-1.938-1.804-1.709 0-.167.012-.373-.026-.526 1.164-.05 2.552-.41 2.65-1.875-.038 0-.304-.09-.317-.09-.748 0-1.4.476-2.162.476-1.216 0-2.393-.975-3.08-1.964-.547-.764-.6-1.797-1.225-2.45-.482.05-.907.256-.907.76 0 1.245.172 5.42-1.706 5.42-.288 0-.563-.004-.563-.782 0-1.453.344-5.14 1.25-6.218.693-.813 4.865-1.093 7.507 1.394.307.438 2.09 1.816 2.09 4.933 0 2.67-1.401 4.779-3.795 5.795-1.864.771-2.935-.169-2.935-.925zm-.774-5.365c.134-.438.174-.887.259-1.337.232.333.516.629.82.913-.364.126-.721.28-1.079.424z"/>
</svg>
