<?xml version="1.0" encoding="UTF-8"?>
<svg width="24px" height="22px" viewBox="0 0 24 22" version="1.1" xmlns="http://www.w3.org/2000/svg" xmlns:xlink="http://www.w3.org/1999/xlink">
    <!-- Generator: Sketch 58 (84663) - https://sketch.com -->
    <title>home</title>
    <desc>Created with Sketch.</desc>
    <g id="Page-1" stroke="none" stroke-width="1" fill="none" fill-rule="evenodd">
        <g id="Home's-page_1x1200" transform="translate(-33.000000, -301.000000)" fill="#FFFFFF" fill-rule="nonzero">
            <g id="Side_menu" transform="translate(1.000000, 180.000000)">
                <g id="Home_menu_option" transform="translate(29.000000, 121.000000)">
                    <g id="home" transform="translate(3.000000, 0.000000)">
                        <path d="M23.7447491,8.91934214 L12.368395,0.127135378 C12.1490204,-0.0423784593 11.8509897,-0.0423784593 11.6317089,0.127135378 L0.255261012,8.91934214 C-0.0226134781,9.13412894 -0.0829883673,9.54598918 0.120495634,9.83929858 C0.323979635,10.132608 0.714213294,10.1962375 0.992040909,9.98154969 L12,1.47399357 L23.0079692,9.98150021 C23.118969,10.0673457 23.2479688,10.1086957 23.3758436,10.1086957 C23.5678432,10.1086957 23.7573116,10.0153931 23.8794676,9.8392491 C24.0829985,9.54598918 24.0226236,9.13412894 23.7447491,8.91934214 Z" id="Path"></path>
                        <path d="M20.7110768,9.43478261 C20.3674887,9.43478261 20.0888671,9.72187181 20.0888671,10.0760096 L20.0888671,20.2826671 L15.1112826,20.2826671 L15.1112826,14.7112277 C15.1112826,12.9431901 13.7155085,11.504852 12,11.504852 C10.2844915,11.504852 8.88871739,12.9432865 8.88871739,14.7112277 L8.88871739,20.2827153 L3.91108617,20.2827153 L3.91108617,10.0760578 C3.91108617,9.72192002 3.63246454,9.43478261 3.28887642,9.43478261 C2.94528829,9.43478261 2.66666667,9.72192002 2.66666667,10.0760578 L2.66666667,20.9239904 C2.66666667,21.2781282 2.94528829,21.5652174 3.28887642,21.5652174 L9.51092714,21.5652174 C9.83814502,21.5652174 10.1059155,21.3046873 10.1307047,20.9739274 C10.1322014,20.9589367 10.1331369,20.9425481 10.1331369,20.9239904 L10.1331369,14.7112759 C10.1331369,13.6504051 10.970592,12.7873541 12,12.7873541 C13.029408,12.7873541 13.8668631,13.6504533 13.8668631,14.7112759 L13.8668631,20.9239904 C13.8668631,20.9424517 13.8677986,20.958551 13.8692953,20.973349 C13.8938039,21.3043499 14.1616679,21.5652174 14.4890729,21.5652174 L20.7111236,21.5652174 C21.0547585,21.5652174 21.3333333,21.2781282 21.3333333,20.9239904 L21.3333333,10.0760578 C21.3333333,9.72187181 21.0547117,9.43478261 20.7110768,9.43478261 Z" id="Path"></path>
                    </g>
                </g>
            </g>
        </g>
    </g>
</svg>