<svg xmlns="http://www.w3.org/2000/svg" width="23" height="23" viewBox="0 0 23 23">
    <path fill="orange" fill-rule="nonzero" d="M19.002 15.812v3.145H8.85v-3.145h10.152zm-13.387-.314a1.842 1.842 0 1 0 0 3.684 1.842 1.842 0 0 0 0-3.684zm7.802-11.455c-2.726 0-4.747.576-4.747 3.76 0 1.53.765 2.556 1.56 2.975v.003H8.85v3.055h10.152V10.78h-5.04c-1.32 0-2.6-.336-2.6-1.972 0-1.614 1.51-1.666 2.683-1.666h4.957v-3.1h-5.585zM20.305 0H2.695A2.698 2.698 0 0 0 0 2.695v17.61A2.698 2.698 0 0 0 2.695 23h17.61A2.698 2.698 0 0 0 23 20.305V2.695A2.698 2.698 0 0 0 20.305 0zM1.797 2.695a.9.9 0 0 1 .898-.898h17.61a.9.9 0 0 1 .898.898v17.61a.9.9 0 0 1-.898.898H2.695a.9.9 0 0 1-.898-.898V2.695z"/>
</svg>