<?xml version="1.0" encoding="UTF-8"?>
<svg width="25px" height="26px" viewBox="0 0 25 26" version="1.1" xmlns="http://www.w3.org/2000/svg" xmlns:xlink="http://www.w3.org/1999/xlink">
    <!-- Generator: Sketch 58 (84663) - https://sketch.com -->
    <title>menu</title>
    <desc>Created with Sketch.</desc>
    <g id="Page-1" stroke="none" stroke-width="1" fill="none" fill-rule="evenodd">
        <g id="Home's-page_1x1200_final" transform="translate(-33.000000, -219.000000)" fill="#FFFFFF" fill-rule="nonzero">
            <g id="Side_menu" transform="translate(1.000000, 180.000000)">
                <g id="Menu_options" transform="translate(31.000000, 39.000000)">
                    <g id="menu" transform="translate(1.000000, 0.000000)">
                        <path d="M0.50255848,7.40384615 L6.73428363,7.40384615 C7.01184667,7.40384615 7.23684211,7.17365852 7.23684211,6.88969017 L7.23684211,0.514155983 C7.23684211,0.230187634 7.01184667,0 6.73428363,0 L0.50255848,0 C0.224995431,0 0,0.230187634 0,0.514155983 L0,6.88969017 C0,7.17365852 0.224995431,7.40384615 0.50255848,7.40384615 Z M1.00511696,1.02831197 L6.23172515,1.02831197 L6.23172515,6.37553419 L1.00511696,6.37553419 L1.00511696,1.02831197 Z" id="Shape"></path>
                        <path d="M9.7130848,7.40384615 L15.9448099,7.40384615 C16.2223227,7.40384615 16.4473684,7.17365852 16.4473684,6.88969017 L16.4473684,0.514155983 C16.4473684,0.230187634 16.2223227,0 15.9448099,0 L9.7130848,0 C9.43552175,0 9.21052632,0.230187634 9.21052632,0.514155983 L9.21052632,6.88969017 C9.21052632,7.17365852 9.43552175,7.40384615 9.7130848,7.40384615 Z M10.2156433,1.02831197 L15.4422515,1.02831197 L15.4422515,6.37553419 L10.2156433,6.37553419 L10.2156433,1.02831197 Z" id="Shape"></path>
                        <path d="M24.4974415,0 L18.2657164,0 C17.9882036,0 17.7631579,0.230187634 17.7631579,0.514155983 L17.7631579,6.88969017 C17.7631579,7.17365852 17.9882036,7.40384615 18.2657164,7.40384615 L24.4974415,7.40384615 C24.7749543,7.40384615 25,7.17365852 25,6.88969017 L25,0.514155983 C25,0.230187634 24.7749543,0 24.4974415,0 Z M23.994883,6.37553419 L18.7682749,6.37553419 L18.7682749,1.02831197 L23.994883,1.02831197 L23.994883,6.37553419 Z" id="Shape"></path>
                        <path d="M0.50255848,16.8269231 L6.73428363,16.8269231 C7.01184667,16.8269231 7.23684211,16.5967354 7.23684211,16.3127671 L7.23684211,9.93723291 C7.23684211,9.65326456 7.01184667,9.42307692 6.73428363,9.42307692 L0.50255848,9.42307692 C0.224995431,9.42307692 0,9.65326456 0,9.93723291 L0,16.3127671 C0,16.5967354 0.224995431,16.8269231 0.50255848,16.8269231 Z M1.00511696,10.4513889 L6.23172515,10.4513889 L6.23172515,15.7986111 L1.00511696,15.7986111 L1.00511696,10.4513889 Z" id="Shape"></path>
                        <path d="M24.4974415,9.42307692 L18.2657164,9.42307692 C17.9882036,9.42307692 17.7631579,9.65326456 17.7631579,9.93723291 L17.7631579,16.3127671 C17.7631579,16.5967354 17.9882036,16.8269231 18.2657164,16.8269231 L24.4974415,16.8269231 C24.7749543,16.8269231 25,16.5967354 25,16.3127671 L25,9.93723291 C25,9.65326456 24.7749543,9.42307692 24.4974415,9.42307692 Z M23.994883,15.7986111 L18.7682749,15.7986111 L18.7682749,10.4513889 L23.994883,10.4513889 L23.994883,15.7986111 Z" id="Shape"></path>
                        <path d="M0.50255848,25.5769231 L6.73428363,25.5769231 C7.01184667,25.5769231 7.23684211,25.3467354 7.23684211,25.0627671 L7.23684211,18.6872329 C7.23684211,18.4032646 7.01184667,18.1730769 6.73428363,18.1730769 L0.50255848,18.1730769 C0.224995431,18.1730769 0,18.4032646 0,18.6872329 L0,25.0627671 C0,25.3467354 0.224995431,25.5769231 0.50255848,25.5769231 Z M1.00511696,19.2013889 L6.23172515,19.2013889 L6.23172515,24.5486111 L1.00511696,24.5486111 L1.00511696,19.2013889 Z" id="Shape"></path>
                        <path d="M9.7130848,25.5769231 L15.9448099,25.5769231 C16.2223227,25.5769231 16.4473684,25.3467354 16.4473684,25.0627671 L16.4473684,18.6872329 C16.4473684,18.4032646 16.2223227,18.1730769 15.9448099,18.1730769 L9.7130848,18.1730769 C9.43552175,18.1730769 9.21052632,18.4032646 9.21052632,18.6872329 L9.21052632,25.0627671 C9.21052632,25.3467354 9.43552175,25.5769231 9.7130848,25.5769231 Z M10.2156433,19.2013889 L15.4422515,19.2013889 L15.4422515,24.5486111 L10.2156433,24.5486111 L10.2156433,19.2013889 Z" id="Shape"></path>
                        <path d="M24.4974415,18.1730769 L18.2657164,18.1730769 C17.9882036,18.1730769 17.7631579,18.4032646 17.7631579,18.6872329 L17.7631579,25.0627671 C17.7631579,25.3467354 17.9882036,25.5769231 18.2657164,25.5769231 L24.4974415,25.5769231 C24.7749543,25.5769231 25,25.3467354 25,25.0627671 L25,18.6872329 C25,18.4032646 24.7749543,18.1730769 24.4974415,18.1730769 Z M23.994883,24.5486111 L18.7682749,24.5486111 L18.7682749,19.2013889 L23.994883,19.2013889 L23.994883,24.5486111 Z" id="Shape"></path>
                        <ellipse id="Oval" cx="12.5" cy="16.1538462" rx="1" ry="1"></ellipse>
                        <path d="M9.7130848,16.8269231 L10.5674342,16.8269231 C10.8449973,16.8269231 11.0699927,16.5967354 11.0699927,16.3127671 C11.0699927,16.0287987 10.8449973,15.7986111 10.5674342,15.7986111 L10.2156433,15.7986111 L10.2156433,10.4513889 L15.4422515,10.4513889 L15.4422515,15.7986111 L15.0904605,15.7986111 C14.8129477,15.7986111 14.587902,16.0287987 14.587902,16.3127671 C14.587902,16.5967354 14.8129477,16.8269231 15.0904605,16.8269231 L15.9448099,16.8269231 C16.2223227,16.8269231 16.4473684,16.5967354 16.4473684,16.3127671 L16.4473684,9.93723291 C16.4473684,9.65326456 16.2223227,9.42307692 15.9448099,9.42307692 L9.7130848,9.42307692 C9.43552175,9.42307692 9.21052632,9.65326456 9.21052632,9.93723291 L9.21052632,16.3127671 C9.21052632,16.5967354 9.43552175,16.8269231 9.7130848,16.8269231 Z" id="Path"></path>
                    </g>
                </g>
            </g>
        </g>
    </g>
</svg>