<?xml version="1.0" encoding="UTF-8"?>
<svg width="19px" height="22px" viewBox="0 0 19 22" version="1.1" xmlns="http://www.w3.org/2000/svg" xmlns:xlink="http://www.w3.org/1999/xlink">
    <!-- Generator: Sketch 58 (84663) - https://sketch.com -->
    <title>About_menu_option</title>
    <desc>Created with Sketch.</desc>
    <g id="Page-1" stroke="none" stroke-width="1" fill="none" fill-rule="evenodd">
        <g id="Home's-page_1x1200_final" transform="translate(-36.000000, -357.000000)" fill="#FFFFFF" fill-rule="nonzero">
            <g id="Side_menu" transform="translate(1.000000, 180.000000)">
                <g id="About_menu_option" transform="translate(35.000000, 177.000000)">
                    <g id="user" transform="translate(0.260000, 0.000000)">
                        <path fill="#352d39" d="M14.3257075,14.1335183 C14.3070987,14.1316478 11.61239,14.2055754 11.2117294,11.5206308 C11.6569231,11.2318073 12.067231,10.8568554 12.4287079,10.4018967 C13.13191,9.51680621 13.5850135,8.40648948 13.7464117,7.20549561 C13.8018723,7.15886044 13.847777,7.10083217 13.878685,7.03243108 C14.1707105,6.38561781 14.3188035,5.69497512 14.3188035,4.97959071 C14.3188035,2.23385455 12.0911892,0 9.35290757,0 C8.63676622,0 7.94197697,0.153381682 7.28577696,0.456276494 C7.03544983,0.474046323 6.7901521,0.514984948 6.55491317,0.578157115 C5.4302928,0.88028672 4.51512423,1.6555699 3.97793821,2.76129539 C3.45643477,3.83488214 3.35365205,5.09870809 3.68861033,6.32002248 C3.75938776,6.57802509 3.84936836,6.83156399 3.95608316,7.07379482 C3.98497937,7.13930512 4.02804935,7.19520781 4.07976077,7.24120531 C4.34119831,9.11575223 5.30048847,10.6689118 6.60849918,11.5168897 C6.20660411,14.2063831 3.51285554,14.1317328 3.49429247,14.1336033 C1.55650898,14.194735 0,15.6785157 0,17.4948643 L0,21.2758843 C0,21.5465553 0.235970473,21.7659574 0.527081499,21.7659574 L5.1555502,21.7659574 L12.6643126,21.7659574 L17.2928728,21.7659574 C17.5839381,21.7659574 17.82,21.5465553 17.82,21.2758843 L17.82,17.4948643 C17.82,15.6784306 16.2635825,14.1946074 14.3257075,14.1335183 Z M6.53150068,1.81313488 C6.72031058,1.76581434 6.91971215,1.73775669 7.12418514,1.72977913 C7.20007712,1.72682159 7.27426366,1.70942663 7.34153868,1.67876167 C7.86533244,1.44013541 8.420228,1.31914894 8.99074177,1.31914894 C11.107908,1.31914894 12.8304,2.96147513 12.8304,4.98018639 C12.8304,5.04077691 12.8284253,5.10105612 12.8253734,5.16110183 C12.414722,4.79950444 11.8441634,4.5747708 11.2140939,4.5747708 L7.68783229,4.5747708 C7.47801858,4.5747708 7.27888629,4.5176437 7.11188804,4.40953806 C6.96930448,4.3172708 6.85907935,4.19324896 6.79324048,4.0508982 C6.69127326,3.83071761 6.43985585,3.69299772 6.16617798,3.70790213 C5.89151276,3.72307895 5.66038108,3.88846734 5.5909967,4.11958303 C5.38665834,4.80043839 4.97919338,5.42759118 4.42016887,5.93617021 C3.90001039,4.07996764 4.83876405,2.23719072 6.53150068,1.81313488 Z M6.29915764,10.0313515 C5.59603032,9.28762576 5.1355595,8.28331596 4.9896,7.18379821 C5.67144742,6.65763841 6.21047576,6.00287078 6.56140664,5.27659574 C6.61465327,5.31912683 6.6705716,5.35934467 6.72897415,5.39712753 C7.09157617,5.63141373 7.52308008,5.75531391 7.97698881,5.75531391 L11.6597711,5.75531391 C12.1808474,5.75531391 12.6299752,6.02592198 12.8304,6.41320644 C12.8304,6.41653425 12.8297907,6.41969973 12.8297907,6.42302755 C12.8297907,9.06409409 11.0599028,11.212766 8.88438444,11.212766 C7.93756944,11.212766 7.01939325,10.7932179 6.29915764,10.0313515 Z M7.95197311,11.8723404 C8.37107638,12.0111042 8.8119167,12.0853326 9.26656051,12.0853326 C9.71758147,12.0853326 10.1582384,12.013496 10.5800931,11.8749 C10.773663,12.7976562 11.3343781,13.6019156 12.1176,14.1555861 L9.34153959,17.772928 C9.32342538,17.7965519 9.29824891,17.8085106 9.26669808,17.8085106 C9.23519311,17.8085106 9.21001665,17.7965099 9.19194829,17.77297 L6.4152,14.1547889 C7.19846773,13.6004889 7.75899943,12.7956421 7.95197311,11.8723404 Z M17.1072,20.4468085 L13.0135939,20.4468085 L5.51916049,20.4468085 L1.4256,20.4468085 L1.4256,17.1785036 C1.4256,15.8730055 2.57362962,14.8109003 3.98474271,14.8109003 C4.00390924,14.8109003 4.8504767,14.7918595 5.51938866,14.5106383 L8.3318034,18.2160373 C8.54555586,18.4977229 8.89529944,18.6658815 9.26731269,18.6658815 C9.26731269,18.6658815 9.26731269,18.6658815 9.26735833,18.6658815 C9.63932595,18.6658815 9.98911515,18.4977229 10.2028676,18.2160373 L13.0147804,14.5112294 C13.777654,14.8109425 14.5289364,14.8109425 14.5481029,14.8109425 C15.959216,14.8109425 17.1072,15.8730477 17.1072,17.1785458 L17.1072,20.4468085 Z" id="Shape"></path>
                    </g>
                </g>
            </g>
        </g>
    </g>
</svg>