<?xml version="1.0" encoding="UTF-8"?>
<svg width="26px" height="19px" viewBox="0 0 26 19" version="1.1" xmlns="http://www.w3.org/2000/svg" xmlns:xlink="http://www.w3.org/1999/xlink">
    <!-- Generator: Sketch 58 (84663) - https://sketch.com -->
    <title>Shape</title>
    <desc>Created with Sketch.</desc>
    <g id="Page-1" stroke="none" stroke-width="1" fill="none" fill-rule="evenodd">
        <g id="Home's-page_1x1200_final" transform="translate(-33.000000, -523.000000)" fill="#FFFFFF" fill-rule="nonzero">
            <g id="Side_menu" transform="translate(1.000000, 180.000000)">
                <g id="Education_menu_option" transform="translate(19.000000, 343.000000)">
                    <path fill="#352d39" d="M38.0810423,6.11404094 L26.0636056,0.0556000379 C25.9165061,-0.018533346 25.743347,-0.018533346 25.5962965,0.0556000379 L13.5788597,6.11404094 C13.4018309,6.20328746 13.29,6.38573164 13.29,6.58521515 C13.29,6.78479743 13.4018309,6.96719222 13.5788597,7.05638935 L17.5571102,9.06194186 L17.5571102,13.0878637 C17.5571102,15.5742213 21.1910019,17.5219389 25.83,17.5219389 C30.4689981,17.5219389 34.1028408,15.5743201 34.1028408,13.0878637 L34.1028408,9.06194186 L35.4913465,8.36194689 L35.4913465,12.2041898 C34.8512702,12.4241205 34.3894963,13.0358073 34.3894963,13.754669 C34.3894963,14.4064106 34.7690257,14.9702392 35.3168648,15.2338301 L34.2069322,18.1864724 C34.1460938,18.3483706 34.1679898,18.5300739 34.2655663,18.6725127 C34.3631428,18.8149516 34.5238599,18.9 34.6955494,18.9 L37.332515,18.9 C37.5042046,18.9 37.6649217,18.8149516 37.7625471,18.6725127 C37.8600746,18.5300739 37.8819706,18.3483706 37.8211812,18.1865217 L36.7112486,15.2338794 C37.2589897,14.9702886 37.6385192,14.40646 37.6385192,13.7547184 C37.6385192,13.0358073 37.1765983,12.4240711 36.536424,12.2041898 L36.536424,7.8351603 L38.0811893,7.05643874 C38.2582181,6.96719222 38.37,6.78474804 38.37,6.58526454 C38.37,6.38573164 38.2580711,6.20328746 38.0810423,6.11404094 Z M31.0999762,15.699885 C29.7011144,16.4576196 27.8295198,16.875 25.83,16.875 C23.8304802,16.875 21.9589348,16.4576729 20.5600238,15.699885 C19.295385,15.0148054 18.57,14.1133064 18.57,13.2265196 L18.57,9.45 L25.5953065,13.2556243 C25.6692079,13.2956566 25.7496039,13.3156461 25.83,13.3156461 C25.9103961,13.3156461 25.9907921,13.2956566 26.0646935,13.2556243 L33.09,9.45 L33.09,13.2265196 L33.09,13.2265196 C33.09,14.1133064 32.3646642,15.0148054 31.0999762,15.699885 Z M35.07,17.55 L35.7300288,16.2 L36.39,17.55 L35.07,17.55 Z M36.39,13.4999144 C36.3900558,13.8722101 36.0939513,14.175 35.7300558,14.175 C35.3660487,14.175 35.07,13.8721531 35.07,13.4999144 C35.07,13.1286459 35.3645422,12.8266549 35.7270987,12.825 C35.7280472,12.825 35.7289399,12.8251141 35.7298884,12.8251141 C35.7308927,12.8251141 35.7318412,12.825 35.7327898,12.825 C36.095402,12.8265978 36.39,13.1285888 36.39,13.4999144 Z M36.2757884,7.49534894 L26.2070054,6.53727696 C25.9185321,6.50961037 25.6635428,6.73399983 25.6374834,7.03796956 C25.6114239,7.34199111 25.8241772,7.61062637 26.1126505,7.63808571 L34.4916008,8.43533921 L26.16,12.825 L15.27,7.08744819 L26.16,1.35 L37.05,7.0875 L36.2757884,7.49534894 Z" id="Shape"></path>
                </g>
            </g>
        </g>
    </g>
</svg>