<?xml version="1.0" encoding="UTF-8"?>
<svg width="27px" height="18px" viewBox="0 0 27 18" version="1.1" xmlns="http://www.w3.org/2000/svg" xmlns:xlink="http://www.w3.org/1999/xlink">
    <!-- Generator: Sketch 58 (84663) - https://sketch.com -->
    <title>laptop</title>
    <desc>Created with Sketch.</desc>
    <g id="Page-1" stroke="none" stroke-width="1" fill="none" fill-rule="evenodd">
        <g id="Home's-page_1x1200_final" transform="translate(-32.000000, -471.000000)" fill="#FFFFFF" fill-rule="nonzero">
            <g id="Side_menu" transform="translate(1.000000, 180.000000)">
                <g id="Experience_menu_option" transform="translate(17.000000, 291.000000)">
                    <g id="laptop" transform="translate(14.946429, 0.000000)">
                        <path  fill="#352d39" d="M21.2509864,1.97560976 L4.51687079,1.97560976 C4.21171786,1.97560976 3.96428571,2.23416806 3.96428571,2.55315971 L3.96428571,11.2761086 C3.96428571,11.5951002 4.21171786,11.8536585 4.51687079,11.8536585 C4.82202373,11.8536585 5.06945587,11.5951002 5.06945587,11.2761086 L5.06945587,3.13065725 L20.6984013,3.13065725 L20.6984013,11.2760562 L20.6984013,11.2760562 C20.6984013,11.5950478 20.9458334,11.8536585 21.2509864,11.8536585 C21.5561393,11.8536585 21.8035714,11.5950478 21.8035714,11.2760562 L21.8035714,2.5531073 C21.8035714,2.23416806 21.5560891,1.97560976 21.2509864,1.97560976 Z" id="Path"></path>
                        <path  fill="#352d39" d="M24.6208872,13.7213539 L23.6256714,13.7213539 L23.6256714,1.72651459 C23.6256714,0.774516062 22.8929533,0 21.9923309,0 L3.11486099,0 C2.21418952,0 1.48152047,0.774516062 1.48152047,1.72651459 L1.48152047,13.7213539 L0.48630473,13.7213539 C0.21772643,13.7213539 0,13.9514488 0,14.2354 L0,15.2445205 C0,16.6428687 1.07622566,17.7804878 2.39910987,17.7804878 L22.708033,17.7804878 C24.0309172,17.7804878 25.1071429,16.6428687 25.1071429,15.2445205 L25.1071429,14.2354 C25.1071429,13.9514488 24.8895145,13.7213539 24.6208872,13.7213539 Z M2.57509158,1.61589836 C2.57509158,1.2905601 2.82275377,1.02579737 3.12707904,1.02579737 L21.9800638,1.02579737 C22.284487,1.02579737 22.5320513,1.29050774 22.5320513,1.61589836 L22.5320513,13.7312668 L15.2251105,13.7312668 C15.1906816,13.7300626 15.1551754,13.733204 15.119914,13.7404814 C14.8913028,13.7874968 14.726113,14.0014222 14.726113,14.2502688 C14.726113,14.6885382 14.3925991,15.0450281 13.9827346,15.0450281 L11.1245552,15.0450281 C10.7145927,15.0450281 10.3811768,14.6884859 10.3811768,14.2502688 C10.3811768,13.9595376 10.1558468,13.7249318 9.88423624,13.7311621 L2.57509158,13.7311621 L2.57509158,1.61589836 Z M24.1414835,15.2101939 L24.1414835,15.2101939 C24.1414835,16.0618704 23.5010649,16.7546904 22.714084,16.7546904 L2.3930098,16.7546904 C1.60597985,16.7546904 0.965659341,16.0618704 0.965659341,15.2101939 L0.965659341,14.7030957 L9.47397326,14.7030957 C9.68432223,15.4724769 10.3434353,16.0354297 11.1217314,16.0354297 L13.9853134,16.0354297 C14.7636094,16.0354297 15.4227225,15.4724238 15.6331205,14.7030957 L24.1414835,14.7030957 L24.1414835,15.2101939 L24.1414835,15.2101939 Z" id="Shape"></path>
                        <path  fill="#352d39" d="M13.0508659,5.43117076 C12.8329222,5.21399999 12.4797257,5.21399999 12.2617313,5.43117076 L8.75270554,8.92871527 C8.53481244,9.14588604 8.53481244,9.49801256 8.75270554,9.71518332 C8.8616774,9.82379394 9.00447511,9.87804878 9.14722218,9.87804878 C9.29001989,9.87804878 9.43276696,9.823693 9.54173883,9.71518332 L13.0508659,6.21768928 C13.268759,6.00051852 13.268759,5.64839199 13.0508659,5.43117076 Z" id="Path"></path>
                        <path  fill="#352d39" d="M15.0246266,8.07367837 C14.7954952,7.84535924 14.4241681,7.84535924 14.1950367,8.07367837 L12.7253801,9.5384652 C12.4963019,9.76678433 12.4963019,10.1369871 12.7253801,10.3653593 C12.8399458,10.4795454 12.9900737,10.5365854 13.1401484,10.5365854 C13.2903296,10.5365854 13.440351,10.4795454 13.5549167,10.3653593 L15.0245733,8.90057245 C15.2537048,8.67225333 15.2537048,8.30205055 15.0246266,8.07367837 Z" id="Path"></path>
                    </g>
                </g>
            </g>
        </g>
    </g>
</svg>