<?xml version="1.0" encoding="UTF-8"?>
<svg width="26px" height="22px" viewBox="0 0 26 22" version="1.1" xmlns="http://www.w3.org/2000/svg" xmlns:xlink="http://www.w3.org/1999/xlink">
    <!-- Generator: Sketch 58 (84663) - https://sketch.com -->
    <title>image</title>
    <desc>Created with Sketch.</desc>
    <g id="Page-1" stroke="none" stroke-width="1" fill="none" fill-rule="evenodd">
        <g id="Home's-page_1x1200_final" transform="translate(-32.000000, -414.000000)" fill="#FFFFFF" fill-rule="nonzero">
            <g id="Side_menu" transform="translate(1.000000, 180.000000)">
                <g id="Portfolio_menu_option" transform="translate(23.000000, 234.000000)">
                    <g id="image" transform="translate(8.318182, 0.000000)">
                        <path  fill="#352d39" d="M23.9397369,0.602228824 L1.10571768,0.602228824 C0.496017401,0.602228824 0,1.10903632 0,1.73199969 L0,20.5788409 C0,21.2018043 0.496017401,21.7086118 1.10571768,21.7086118 L23.9397369,21.7086118 C24.5494371,21.7086118 25.0454545,21.2018043 25.0454545,20.5788409 L25.0454545,1.73199969 C25.0454545,1.10903632 24.5494371,0.602228824 23.9397369,0.602228824 Z M23.8714489,20.5131664 L1.17400568,20.5139109 C1.17400568,20.5139109 1.17400568,20.5136627 1.17400568,20.5131664 L1.17400568,1.79692975 L23.8714489,1.79692975 L23.8714489,20.5131664 Z" id="Shape"></path>
                        <path  fill="#352d39" d="M21.8567503,3.23920901 L3.18875309,3.23920901 C2.88372189,3.23920901 2.63636364,3.49654918 2.63636364,3.81388963 L2.63636364,16.5156431 C2.63636364,16.8329835 2.88372189,17.0902728 3.18875309,17.0902728 L21.8567015,17.0902728 C22.1617327,17.0902728 22.4090909,16.8329327 22.4090909,16.5155922 L22.4090909,3.81388963 C22.4090909,3.49654918 22.1617815,3.23920901 21.8567503,3.23920901 Z M3.79946524,4.4613617 L21.2459893,4.4613617 L21.2459893,14.2385832 L17.7878152,10.5992211 C17.5736093,10.3737666 17.22618,10.3737666 17.0118283,10.5992211 L14.9037055,12.8180465 L10.0699911,7.7305023 C9.85573652,7.50515005 9.50830723,7.50504785 9.29400414,7.7305023 L3.79946524,13.5130103 L3.79946524,4.4613617 L3.79946524,4.4613617 Z M3.79946524,15.8681202 L3.79946524,14.9681417 L9.75232686,8.94258824 L16.5935829,15.8681202 L3.79946524,15.8681202 L3.79946524,15.8681202 Z M21.2459893,15.8681202 L18.0752983,15.8681202 L18.0752983,15.8680711 L15.8181818,13.5310297 L17.4954907,11.7942778 L21.1229926,15.5497402 C21.1602988,15.5883673 21.2018658,15.6198377 21.2459893,15.6446414 L21.2459893,15.8681202 L21.2459893,15.8681202 Z" id="Shape"></path>
                        <path  fill="#352d39" d="M14.8295455,5.21615474 C13.5576075,5.21615474 12.5227273,6.25174022 12.5227273,7.52466538 C12.5227273,8.79759054 13.5575535,9.83317602 14.8295455,9.83317602 C16.1015374,9.83317602 17.1363636,8.79759054 17.1363636,7.52466538 C17.1363636,6.25174022 16.1014834,5.21615474 14.8295455,5.21615474 Z M14.8295715,8.57398839 C14.2513286,8.57398839 13.7809917,8.10330645 13.7809917,7.52463931 C13.7809917,6.94602431 14.2513807,6.47534236 14.8295715,6.47534236 C15.4077102,6.47534236 15.8780992,6.94602431 15.8780992,7.52463931 C15.8780992,8.10330645 15.4077623,8.57398839 14.8295715,8.57398839 Z" id="Shape"></path>
                        <path  fill="#352d39" d="M8.01371734,18.4680851 L3.19082812,18.4680851 C2.88465108,18.4680851 2.63636364,18.7634405 2.63636364,19.1276596 C2.63636364,19.491937 2.88465108,19.787234 3.19082812,19.787234 L8.01371734,19.787234 C8.31994343,19.787234 8.56818182,19.4918787 8.56818182,19.1276596 C8.56818182,18.7634405 8.31994343,18.4680851 8.01371734,18.4680851 Z" id="Path"></path>
                        <path  fill="#352d39" d="M11.9069637,18.4680851 L10.5021272,18.4680851 C10.1621006,18.4680851 9.88636364,18.7634405 9.88636364,19.1276596 C9.88636364,19.4918787 10.1621006,19.787234 10.5021272,19.787234 L11.9069637,19.787234 C12.2470448,19.787234 12.5227273,19.4918787 12.5227273,19.1276596 C12.5227273,18.7634405 12.2469903,18.4680851 11.9069637,18.4680851 Z" id="Path"></path>
                    </g>
                </g>
            </g>
        </g>
    </g>
</svg>